<?xml version="1.0" standalone="no"?>
<!DOCTYPE svg PUBLIC "-//W3C//DTD SVG 1.1//EN" "http://www.w3.org/Graphics/SVG/1.1/DTD/svg11.dtd">
<svg width="556" height="275" viewBox="-128 -260 556 275" xmlns="http://www.w3.org/2000/svg" version="1.1">
<title>OpenSCAD Model</title>
<path d="
M 333.257,-136.027 L 333.999,-136.158 L 334.719,-136.381 L 423.772,-164.761 L 424.458,-165.072 L 425.1,-165.467
 L 425.687,-165.939 L 426.211,-166.481 L 426.662,-167.085 L 427.034,-167.74 L 427.321,-168.437 L 427.519,-169.164
 L 427.624,-169.91 L 427.634,-170.663 L 422.543,-254.162 L 422.459,-254.91 L 422.282,-255.643 L 422.014,-256.347
 L 421.66,-257.012 L 421.226,-257.628 L 420.718,-258.185 L 420.144,-258.673 L 419.514,-259.086 L 418.837,-259.416
 L 418.123,-259.659 L 417.385,-259.81 L 416.634,-259.868 L 306,-259.868 L 306,-258.084 L 305.825,-258.053
 L 305.105,-257.83 L 304.419,-257.519 L 303.777,-257.124 L 303.19,-256.652 L 302.666,-256.11 L 302.215,-255.507
 L 301.843,-254.852 L 301.556,-254.155 L 301.358,-253.428 L 301.253,-252.682 L 301.243,-251.928 L 301.327,-251.18
 L 301.504,-250.447 L 301.772,-249.743 L 302.125,-249.078 L 302.56,-248.462 L 303.068,-247.905 L 303.641,-247.417
 L 304.272,-247.004 L 304.949,-246.674 L 305.662,-246.431 L 306.401,-246.28 L 307.152,-246.222 L 307.904,-246.259
 L 308.646,-246.39 L 309.366,-246.612 L 310.052,-246.924 L 310.694,-247.319 L 311.281,-247.791 L 311.698,-248.222
 L 364.701,-248.222 L 403.513,-246.942 L 416.362,-174.067 L 342.038,-157.915 L 325.296,-154.963 L 274.704,-154.963
 L 257.962,-157.915 L 183.638,-174.067 L 196.487,-246.942 L 235.299,-248.222 L 288.302,-248.222 L 288.719,-247.791
 L 289.306,-247.319 L 289.948,-246.924 L 290.634,-246.612 L 291.354,-246.39 L 292.096,-246.259 L 292.848,-246.222
 L 293.599,-246.28 L 294.338,-246.431 L 295.051,-246.674 L 295.728,-247.004 L 296.359,-247.417 L 296.932,-247.905
 L 297.44,-248.462 L 297.875,-249.078 L 298.228,-249.743 L 298.496,-250.447 L 298.673,-251.18 L 298.757,-251.928
 L 298.747,-252.682 L 298.642,-253.428 L 298.444,-254.155 L 298.157,-254.852 L 297.785,-255.507 L 297.334,-256.11
 L 296.81,-256.652 L 296.223,-257.124 L 295.581,-257.519 L 294.895,-257.83 L 294.175,-258.053 L 294,-258.084
 L 294,-259.868 L 183.366,-259.868 L 182.615,-259.81 L 181.877,-259.659 L 181.163,-259.416 L 180.486,-259.086
 L 179.856,-258.673 L 179.282,-258.185 L 178.774,-257.628 L 178.34,-257.012 L 177.986,-256.347 L 177.718,-255.643
 L 177.541,-254.91 L 177.457,-254.162 L 172.366,-170.663 L 172.376,-169.91 L 172.481,-169.164 L 172.679,-168.437
 L 172.966,-167.74 L 173.338,-167.085 L 173.789,-166.481 L 174.313,-165.939 L 174.9,-165.467 L 175.542,-165.072
 L 176.228,-164.761 L 265.281,-136.381 L 266.001,-136.158 L 266.743,-136.027 L 267.496,-135.99 L 332.504,-135.99
 z
M 183.283,-252.378 L 183.097,-252.411 L 182.917,-252.466 L 182.746,-252.544 L 182.585,-252.643 L 182.438,-252.761
 L 182.308,-252.896 L 182.195,-253.047 L 182.102,-253.211 L 182.03,-253.385 L 181.981,-253.567 L 181.954,-253.753
 L 181.952,-253.942 L 181.973,-254.129 L 182.017,-254.312 L 182.084,-254.488 L 182.172,-254.655 L 182.281,-254.808
 L 182.408,-254.948 L 182.551,-255.07 L 182.709,-255.173 L 182.878,-255.255 L 183.057,-255.316 L 183.241,-255.354
 L 183.429,-255.368 L 183.617,-255.359 L 183.803,-255.326 L 183.983,-255.271 L 184.154,-255.193 L 184.315,-255.094
 L 184.461,-254.976 L 184.592,-254.841 L 184.705,-254.69 L 184.798,-254.526 L 184.87,-254.352 L 184.919,-254.17
 L 184.945,-253.984 L 184.948,-253.795 L 184.927,-253.608 L 184.883,-253.425 L 184.816,-253.249 L 184.727,-253.083
 L 184.619,-252.929 L 184.492,-252.79 L 184.348,-252.667 L 184.191,-252.564 L 184.021,-252.482 L 183.843,-252.421
 L 183.659,-252.383 L 183.471,-252.369 z
M 416.341,-252.383 L 416.157,-252.421 L 415.979,-252.482 L 415.809,-252.564 L 415.652,-252.667 L 415.508,-252.79
 L 415.381,-252.929 L 415.273,-253.083 L 415.184,-253.249 L 415.117,-253.425 L 415.073,-253.608 L 415.052,-253.795
 L 415.055,-253.984 L 415.081,-254.17 L 415.13,-254.352 L 415.202,-254.526 L 415.295,-254.69 L 415.408,-254.841
 L 415.539,-254.976 L 415.685,-255.094 L 415.846,-255.193 L 416.017,-255.271 L 416.197,-255.326 L 416.383,-255.359
 L 416.571,-255.368 L 416.759,-255.354 L 416.943,-255.316 L 417.122,-255.255 L 417.291,-255.173 L 417.449,-255.07
 L 417.592,-254.948 L 417.719,-254.808 L 417.828,-254.655 L 417.916,-254.488 L 417.983,-254.312 L 418.027,-254.129
 L 418.048,-253.942 L 418.046,-253.753 L 418.019,-253.567 L 417.97,-253.385 L 417.898,-253.211 L 417.805,-253.047
 L 417.692,-252.896 L 417.562,-252.761 L 417.415,-252.643 L 417.254,-252.544 L 417.083,-252.466 L 416.903,-252.411
 L 416.717,-252.378 L 416.529,-252.369 z
M 292.597,-250.731 L 292.412,-250.764 L 292.232,-250.819 L 292.06,-250.897 L 291.9,-250.996 L 291.753,-251.114
 L 291.622,-251.249 L 291.509,-251.4 L 291.416,-251.564 L 291.344,-251.738 L 291.295,-251.92 L 291.269,-252.106
 L 291.266,-252.295 L 291.287,-252.482 L 291.331,-252.665 L 291.398,-252.841 L 291.487,-253.007 L 291.595,-253.161
 L 291.722,-253.3 L 291.866,-253.423 L 292.023,-253.526 L 292.193,-253.608 L 292.371,-253.669 L 292.556,-253.707
 L 292.743,-253.721 L 292.932,-253.712 L 293.117,-253.679 L 293.297,-253.624 L 293.469,-253.546 L 293.629,-253.447
 L 293.776,-253.329 L 293.907,-253.194 L 294.02,-253.043 L 294.113,-252.879 L 294.184,-252.705 L 294.234,-252.523
 L 294.26,-252.337 L 294.263,-252.148 L 294.242,-251.961 L 294.197,-251.778 L 294.13,-251.602 L 294.042,-251.435
 L 293.933,-251.282 L 293.806,-251.142 L 293.663,-251.02 L 293.505,-250.917 L 293.336,-250.835 L 293.158,-250.774
 L 292.973,-250.736 L 292.785,-250.722 z
M 307.027,-250.736 L 306.842,-250.774 L 306.664,-250.835 L 306.495,-250.917 L 306.337,-251.02 L 306.194,-251.142
 L 306.067,-251.282 L 305.958,-251.435 L 305.87,-251.602 L 305.803,-251.778 L 305.758,-251.961 L 305.737,-252.148
 L 305.74,-252.337 L 305.766,-252.523 L 305.816,-252.705 L 305.887,-252.879 L 305.98,-253.043 L 306.093,-253.194
 L 306.224,-253.329 L 306.371,-253.447 L 306.531,-253.546 L 306.703,-253.624 L 306.883,-253.679 L 307.068,-253.712
 L 307.257,-253.721 L 307.444,-253.707 L 307.629,-253.669 L 307.807,-253.608 L 307.977,-253.526 L 308.134,-253.423
 L 308.278,-253.3 L 308.405,-253.161 L 308.513,-253.007 L 308.602,-252.841 L 308.669,-252.665 L 308.713,-252.482
 L 308.734,-252.295 L 308.731,-252.106 L 308.705,-251.92 L 308.656,-251.738 L 308.584,-251.564 L 308.491,-251.4
 L 308.378,-251.249 L 308.247,-251.114 L 308.1,-250.996 L 307.94,-250.897 L 307.768,-250.819 L 307.588,-250.764
 L 307.403,-250.731 L 307.215,-250.722 z
M 178.191,-168.88 L 178.006,-168.912 L 177.826,-168.968 L 177.654,-169.046 L 177.494,-169.144 L 177.347,-169.262
 L 177.216,-169.398 L 177.103,-169.549 L 177.01,-169.713 L 176.939,-169.887 L 176.889,-170.069 L 176.863,-170.255
 L 176.86,-170.443 L 176.881,-170.631 L 176.926,-170.814 L 176.992,-170.99 L 177.081,-171.156 L 177.189,-171.31
 L 177.316,-171.449 L 177.46,-171.571 L 177.618,-171.674 L 177.787,-171.757 L 177.965,-171.818 L 178.15,-171.856
 L 178.338,-171.87 L 178.526,-171.861 L 178.711,-171.828 L 178.891,-171.772 L 179.063,-171.695 L 179.223,-171.596
 L 179.37,-171.478 L 179.501,-171.342 L 179.614,-171.192 L 179.707,-171.028 L 179.778,-170.854 L 179.828,-170.672
 L 179.854,-170.485 L 179.857,-170.297 L 179.836,-170.11 L 179.791,-169.927 L 179.725,-169.751 L 179.636,-169.584
 L 179.527,-169.43 L 179.4,-169.291 L 179.257,-169.169 L 179.099,-169.066 L 178.93,-168.983 L 178.752,-168.923
 L 178.567,-168.885 L 178.379,-168.87 z
M 421.433,-168.885 L 421.248,-168.923 L 421.07,-168.983 L 420.901,-169.066 L 420.743,-169.169 L 420.6,-169.291
 L 420.473,-169.43 L 420.364,-169.584 L 420.275,-169.751 L 420.209,-169.927 L 420.164,-170.11 L 420.143,-170.297
 L 420.146,-170.485 L 420.172,-170.672 L 420.222,-170.854 L 420.293,-171.028 L 420.386,-171.192 L 420.499,-171.342
 L 420.63,-171.478 L 420.777,-171.596 L 420.937,-171.695 L 421.109,-171.772 L 421.289,-171.828 L 421.474,-171.861
 L 421.662,-171.87 L 421.85,-171.856 L 422.035,-171.818 L 422.213,-171.757 L 422.382,-171.674 L 422.54,-171.571
 L 422.684,-171.449 L 422.811,-171.31 L 422.919,-171.156 L 423.008,-170.99 L 423.074,-170.814 L 423.119,-170.631
 L 423.14,-170.443 L 423.137,-170.255 L 423.111,-170.069 L 423.061,-169.887 L 422.99,-169.713 L 422.897,-169.549
 L 422.784,-169.398 L 422.653,-169.262 L 422.506,-169.144 L 422.346,-169.046 L 422.174,-168.968 L 421.994,-168.912
 L 421.809,-168.88 L 421.621,-168.87 z
M 332.379,-140.504 L 332.195,-140.542 L 332.017,-140.603 L 331.847,-140.686 L 331.69,-140.789 L 331.546,-140.911
 L 331.419,-141.05 L 331.311,-141.204 L 331.222,-141.37 L 331.155,-141.546 L 331.111,-141.729 L 331.09,-141.917
 L 331.093,-142.105 L 331.119,-142.291 L 331.168,-142.473 L 331.24,-142.647 L 331.333,-142.811 L 331.446,-142.962
 L 331.577,-143.097 L 331.723,-143.216 L 331.884,-143.314 L 332.055,-143.392 L 332.235,-143.448 L 332.421,-143.48
 L 332.609,-143.49 L 332.797,-143.475 L 332.981,-143.437 L 333.16,-143.377 L 333.329,-143.294 L 333.487,-143.191
 L 333.63,-143.069 L 333.757,-142.93 L 333.866,-142.776 L 333.954,-142.609 L 334.021,-142.433 L 334.065,-142.25
 L 334.086,-142.063 L 334.084,-141.875 L 334.057,-141.688 L 334.008,-141.506 L 333.936,-141.332 L 333.843,-141.168
 L 333.73,-141.018 L 333.6,-140.882 L 333.453,-140.764 L 333.292,-140.665 L 333.121,-140.588 L 332.941,-140.532
 L 332.755,-140.499 L 332.567,-140.49 z
M 267.245,-140.499 L 267.059,-140.532 L 266.879,-140.588 L 266.708,-140.665 L 266.547,-140.764 L 266.4,-140.882
 L 266.27,-141.018 L 266.157,-141.168 L 266.064,-141.332 L 265.992,-141.506 L 265.943,-141.688 L 265.916,-141.875
 L 265.914,-142.063 L 265.935,-142.25 L 265.979,-142.433 L 266.046,-142.609 L 266.134,-142.776 L 266.243,-142.93
 L 266.37,-143.069 L 266.513,-143.191 L 266.671,-143.294 L 266.84,-143.377 L 267.019,-143.437 L 267.203,-143.475
 L 267.391,-143.49 L 267.579,-143.48 L 267.765,-143.448 L 267.945,-143.392 L 268.116,-143.314 L 268.277,-143.216
 L 268.423,-143.097 L 268.554,-142.962 L 268.667,-142.811 L 268.76,-142.647 L 268.832,-142.473 L 268.881,-142.291
 L 268.907,-142.105 L 268.91,-141.917 L 268.889,-141.729 L 268.845,-141.546 L 268.778,-141.37 L 268.689,-141.204
 L 268.581,-141.05 L 268.454,-140.911 L 268.31,-140.789 L 268.153,-140.686 L 267.983,-140.603 L 267.805,-140.542
 L 267.621,-140.504 L 267.433,-140.49 z
M 33.2569,-136.027 L 33.999,-136.158 L 34.7188,-136.381 L 123.772,-164.761 L 124.458,-165.072 L 125.1,-165.467
 L 125.687,-165.939 L 126.211,-166.481 L 126.662,-167.085 L 127.034,-167.74 L 127.321,-168.437 L 127.519,-169.164
 L 127.624,-169.91 L 127.634,-170.663 L 122.543,-254.162 L 122.459,-254.91 L 122.282,-255.643 L 122.014,-256.347
 L 121.66,-257.012 L 121.226,-257.628 L 120.718,-258.185 L 120.144,-258.673 L 119.514,-259.086 L 118.837,-259.416
 L 118.123,-259.659 L 117.385,-259.81 L 116.634,-259.868 L -116.634,-259.868 L -117.385,-259.81 L -118.123,-259.659
 L -118.837,-259.416 L -119.514,-259.086 L -120.144,-258.673 L -120.718,-258.185 L -121.226,-257.628 L -121.66,-257.012
 L -122.014,-256.347 L -122.282,-255.643 L -122.459,-254.91 L -122.543,-254.162 L -127.634,-170.663 L -127.624,-169.91
 L -127.519,-169.164 L -127.321,-168.437 L -127.034,-167.74 L -126.662,-167.085 L -126.211,-166.481 L -125.687,-165.939
 L -125.1,-165.467 L -124.458,-165.072 L -123.772,-164.761 L -34.7188,-136.381 L -33.999,-136.158 L -33.2569,-136.027
 L -32.5043,-135.99 L 32.5043,-135.99 z
M 116.341,-252.383 L 116.157,-252.421 L 115.979,-252.482 L 115.809,-252.564 L 115.652,-252.667 L 115.508,-252.79
 L 115.381,-252.929 L 115.273,-253.083 L 115.184,-253.249 L 115.117,-253.425 L 115.073,-253.608 L 115.052,-253.795
 L 115.055,-253.984 L 115.081,-254.17 L 115.13,-254.352 L 115.202,-254.526 L 115.295,-254.69 L 115.408,-254.841
 L 115.539,-254.976 L 115.685,-255.094 L 115.846,-255.193 L 116.017,-255.271 L 116.197,-255.326 L 116.383,-255.359
 L 116.571,-255.368 L 116.759,-255.354 L 116.943,-255.316 L 117.122,-255.255 L 117.291,-255.173 L 117.449,-255.07
 L 117.592,-254.948 L 117.719,-254.808 L 117.828,-254.655 L 117.916,-254.488 L 117.983,-254.312 L 118.027,-254.129
 L 118.048,-253.942 L 118.046,-253.753 L 118.019,-253.567 L 117.97,-253.385 L 117.898,-253.211 L 117.805,-253.047
 L 117.692,-252.896 L 117.562,-252.761 L 117.415,-252.643 L 117.254,-252.544 L 117.083,-252.466 L 116.903,-252.411
 L 116.717,-252.378 L 116.529,-252.369 z
M -116.717,-252.378 L -116.903,-252.411 L -117.083,-252.466 L -117.254,-252.544 L -117.415,-252.643 L -117.562,-252.761
 L -117.692,-252.896 L -117.805,-253.047 L -117.898,-253.211 L -117.97,-253.385 L -118.019,-253.567 L -118.046,-253.753
 L -118.048,-253.942 L -118.027,-254.129 L -117.983,-254.312 L -117.916,-254.488 L -117.828,-254.655 L -117.719,-254.808
 L -117.592,-254.948 L -117.449,-255.07 L -117.291,-255.173 L -117.122,-255.255 L -116.943,-255.316 L -116.759,-255.354
 L -116.571,-255.368 L -116.383,-255.359 L -116.197,-255.326 L -116.017,-255.271 L -115.846,-255.193 L -115.685,-255.094
 L -115.539,-254.976 L -115.408,-254.841 L -115.295,-254.69 L -115.202,-254.526 L -115.13,-254.352 L -115.081,-254.17
 L -115.055,-253.984 L -115.052,-253.795 L -115.073,-253.608 L -115.117,-253.425 L -115.184,-253.249 L -115.273,-253.083
 L -115.381,-252.929 L -115.508,-252.79 L -115.652,-252.667 L -115.809,-252.564 L -115.979,-252.482 L -116.157,-252.421
 L -116.341,-252.383 L -116.529,-252.369 z
M 7.02686,-250.736 L 6.84233,-250.774 L 6.664,-250.835 L 6.49471,-250.917 L 6.33708,-251.02 L 6.19362,-251.142
 L 6.0666,-251.282 L 5.95802,-251.435 L 5.86958,-251.602 L 5.80269,-251.778 L 5.75841,-251.961 L 5.73741,-252.148
 L 5.74004,-252.337 L 5.76625,-252.523 L 5.81564,-252.705 L 5.88742,-252.879 L 5.98047,-253.043 L 6.09331,-253.194
 L 6.22417,-253.329 L 6.37097,-253.447 L 6.5314,-253.546 L 6.70296,-253.624 L 6.8829,-253.679 L 7.06841,-253.712
 L 7.25656,-253.721 L 7.44437,-253.707 L 7.62889,-253.669 L 7.80722,-253.608 L 7.97653,-253.526 L 8.13416,-253.423
 L 8.2776,-253.3 L 8.40462,-253.161 L 8.5132,-253.007 L 8.60164,-252.841 L 8.66853,-252.665 L 8.71283,-252.482
 L 8.73383,-252.295 L 8.73119,-252.106 L 8.70497,-251.92 L 8.65559,-251.738 L 8.5838,-251.564 L 8.49075,-251.4
 L 8.37791,-251.249 L 8.24707,-251.114 L 8.10027,-250.996 L 7.93982,-250.897 L 7.76828,-250.819 L 7.58833,-250.764
 L 7.40282,-250.731 L 7.21468,-250.722 z
M -7.40282,-250.731 L -7.58833,-250.764 L -7.76828,-250.819 L -7.93982,-250.897 L -8.10027,-250.996 L -8.24707,-251.114
 L -8.37791,-251.249 L -8.49075,-251.4 L -8.5838,-251.564 L -8.65559,-251.738 L -8.70497,-251.92 L -8.73119,-252.106
 L -8.73383,-252.295 L -8.71283,-252.482 L -8.66853,-252.665 L -8.60164,-252.841 L -8.5132,-253.007 L -8.40462,-253.161
 L -8.2776,-253.3 L -8.13416,-253.423 L -7.97653,-253.526 L -7.80722,-253.608 L -7.62889,-253.669 L -7.44437,-253.707
 L -7.25656,-253.721 L -7.06841,-253.712 L -6.8829,-253.679 L -6.70296,-253.624 L -6.5314,-253.546 L -6.37097,-253.447
 L -6.22417,-253.329 L -6.09331,-253.194 L -5.98047,-253.043 L -5.88742,-252.879 L -5.81564,-252.705 L -5.76625,-252.523
 L -5.74004,-252.337 L -5.73741,-252.148 L -5.75841,-251.961 L -5.80269,-251.778 L -5.86958,-251.602 L -5.95802,-251.435
 L -6.0666,-251.282 L -6.19362,-251.142 L -6.33708,-251.02 L -6.49471,-250.917 L -6.664,-250.835 L -6.84233,-250.774
 L -7.02686,-250.736 L -7.21468,-250.722 z
M -121.809,-168.88 L -121.994,-168.912 L -122.174,-168.968 L -122.346,-169.046 L -122.506,-169.144 L -122.653,-169.262
 L -122.784,-169.398 L -122.897,-169.549 L -122.99,-169.713 L -123.061,-169.887 L -123.111,-170.069 L -123.137,-170.255
 L -123.14,-170.443 L -123.119,-170.631 L -123.074,-170.814 L -123.008,-170.99 L -122.919,-171.156 L -122.811,-171.31
 L -122.684,-171.449 L -122.54,-171.571 L -122.382,-171.674 L -122.213,-171.757 L -122.035,-171.818 L -121.85,-171.856
 L -121.662,-171.87 L -121.474,-171.861 L -121.289,-171.828 L -121.109,-171.772 L -120.937,-171.695 L -120.777,-171.596
 L -120.63,-171.478 L -120.499,-171.342 L -120.386,-171.192 L -120.293,-171.028 L -120.222,-170.854 L -120.172,-170.672
 L -120.146,-170.485 L -120.143,-170.297 L -120.164,-170.11 L -120.209,-169.927 L -120.275,-169.751 L -120.364,-169.584
 L -120.473,-169.43 L -120.6,-169.291 L -120.743,-169.169 L -120.901,-169.066 L -121.07,-168.983 L -121.248,-168.923
 L -121.433,-168.885 L -121.621,-168.87 z
M 121.433,-168.885 L 121.248,-168.923 L 121.07,-168.983 L 120.901,-169.066 L 120.743,-169.169 L 120.6,-169.291
 L 120.473,-169.43 L 120.364,-169.584 L 120.275,-169.751 L 120.209,-169.927 L 120.164,-170.11 L 120.143,-170.297
 L 120.146,-170.485 L 120.172,-170.672 L 120.222,-170.854 L 120.293,-171.028 L 120.386,-171.192 L 120.499,-171.342
 L 120.63,-171.478 L 120.777,-171.596 L 120.937,-171.695 L 121.109,-171.772 L 121.289,-171.828 L 121.474,-171.861
 L 121.662,-171.87 L 121.85,-171.856 L 122.035,-171.818 L 122.213,-171.757 L 122.382,-171.674 L 122.54,-171.571
 L 122.684,-171.449 L 122.811,-171.31 L 122.919,-171.156 L 123.008,-170.99 L 123.074,-170.814 L 123.119,-170.631
 L 123.14,-170.443 L 123.137,-170.255 L 123.111,-170.069 L 123.061,-169.887 L 122.99,-169.713 L 122.897,-169.549
 L 122.784,-169.398 L 122.653,-169.262 L 122.506,-169.144 L 122.346,-169.046 L 122.174,-168.968 L 121.994,-168.912
 L 121.809,-168.88 L 121.621,-168.87 z
M 32.3794,-140.504 L 32.1949,-140.542 L 32.0165,-140.603 L 31.8472,-140.686 L 31.6896,-140.789 L 31.5461,-140.911
 L 31.4191,-141.05 L 31.3105,-141.204 L 31.2221,-141.37 L 31.1552,-141.546 L 31.1109,-141.729 L 31.0899,-141.917
 L 31.0926,-142.105 L 31.1188,-142.291 L 31.1682,-142.473 L 31.2399,-142.647 L 31.333,-142.811 L 31.4458,-142.962
 L 31.5767,-143.097 L 31.7235,-143.216 L 31.8839,-143.314 L 32.0555,-143.392 L 32.2354,-143.448 L 32.4209,-143.48
 L 32.6091,-143.49 L 32.7969,-143.475 L 32.9814,-143.437 L 33.1597,-143.377 L 33.3291,-143.294 L 33.4867,-143.191
 L 33.6301,-143.069 L 33.7571,-142.93 L 33.8657,-142.776 L 33.9542,-142.609 L 34.021,-142.433 L 34.0654,-142.25
 L 34.0863,-142.063 L 34.0837,-141.875 L 34.0575,-141.688 L 34.0081,-141.506 L 33.9363,-141.332 L 33.8433,-141.168
 L 33.7304,-141.018 L 33.5996,-140.882 L 33.4528,-140.764 L 33.2923,-140.665 L 33.1208,-140.588 L 32.9408,-140.532
 L 32.7553,-140.499 L 32.5672,-140.49 z
M -32.7553,-140.499 L -32.9408,-140.532 L -33.1208,-140.588 L -33.2923,-140.665 L -33.4528,-140.764 L -33.5996,-140.882
 L -33.7304,-141.018 L -33.8433,-141.168 L -33.9363,-141.332 L -34.0081,-141.506 L -34.0575,-141.688 L -34.0837,-141.875
 L -34.0863,-142.063 L -34.0654,-142.25 L -34.021,-142.433 L -33.9542,-142.609 L -33.8657,-142.776 L -33.7571,-142.93
 L -33.6301,-143.069 L -33.4867,-143.191 L -33.3291,-143.294 L -33.1597,-143.377 L -32.9814,-143.437 L -32.7969,-143.475
 L -32.6091,-143.49 L -32.4209,-143.48 L -32.2354,-143.448 L -32.0555,-143.392 L -31.8839,-143.314 L -31.7235,-143.216
 L -31.5767,-143.097 L -31.4458,-142.962 L -31.333,-142.811 L -31.2399,-142.647 L -31.1682,-142.473 L -31.1188,-142.291
 L -31.0926,-142.105 L -31.0899,-141.917 L -31.1109,-141.729 L -31.1552,-141.546 L -31.2221,-141.37 L -31.3105,-141.204
 L -31.4191,-141.05 L -31.5461,-140.911 L -31.6896,-140.789 L -31.8472,-140.686 L -32.0165,-140.603 L -32.1949,-140.542
 L -32.3794,-140.504 L -32.5672,-140.49 z
M 333.257,13.9728 L 333.999,13.842 L 334.719,13.6192 L 423.772,-14.7612 L 424.458,-15.0725 L 425.1,-15.4673
 L 425.687,-15.9394 L 426.211,-16.4815 L 426.662,-17.0848 L 427.034,-17.74 L 427.321,-18.4366 L 427.519,-19.1637
 L 427.624,-19.9099 L 427.634,-20.6633 L 422.543,-104.162 L 422.459,-104.91 L 422.282,-105.643 L 422.014,-106.347
 L 421.66,-107.012 L 421.226,-107.628 L 420.718,-108.185 L 420.144,-108.673 L 419.514,-109.086 L 418.837,-109.416
 L 418.123,-109.659 L 417.385,-109.81 L 416.634,-109.868 L 183.366,-109.868 L 182.615,-109.81 L 181.877,-109.659
 L 181.163,-109.416 L 180.486,-109.086 L 179.856,-108.673 L 179.282,-108.185 L 178.774,-107.628 L 178.34,-107.012
 L 177.986,-106.347 L 177.718,-105.643 L 177.541,-104.91 L 177.457,-104.162 L 172.366,-20.6633 L 172.376,-19.9099
 L 172.481,-19.1637 L 172.679,-18.4366 L 172.966,-17.74 L 173.338,-17.0848 L 173.789,-16.4815 L 174.313,-15.9394
 L 174.9,-15.4673 L 175.542,-15.0725 L 176.228,-14.7612 L 265.281,13.6192 L 266.001,13.842 L 266.743,13.9728
 L 267.496,14.0096 L 332.504,14.0096 z
M 416.341,-102.383 L 416.157,-102.421 L 415.979,-102.482 L 415.809,-102.564 L 415.652,-102.667 L 415.508,-102.79
 L 415.381,-102.929 L 415.273,-103.083 L 415.184,-103.249 L 415.117,-103.425 L 415.073,-103.608 L 415.052,-103.795
 L 415.055,-103.984 L 415.081,-104.17 L 415.13,-104.352 L 415.202,-104.526 L 415.295,-104.69 L 415.408,-104.841
 L 415.539,-104.976 L 415.685,-105.094 L 415.846,-105.193 L 416.017,-105.271 L 416.197,-105.326 L 416.383,-105.359
 L 416.571,-105.368 L 416.759,-105.354 L 416.943,-105.316 L 417.122,-105.255 L 417.291,-105.173 L 417.449,-105.07
 L 417.592,-104.948 L 417.719,-104.808 L 417.828,-104.655 L 417.916,-104.488 L 417.983,-104.312 L 418.027,-104.129
 L 418.048,-103.942 L 418.046,-103.753 L 418.019,-103.567 L 417.97,-103.385 L 417.898,-103.211 L 417.805,-103.047
 L 417.692,-102.896 L 417.562,-102.761 L 417.415,-102.643 L 417.254,-102.544 L 417.083,-102.466 L 416.903,-102.411
 L 416.717,-102.378 L 416.529,-102.369 z
M 183.283,-102.378 L 183.097,-102.411 L 182.917,-102.466 L 182.746,-102.544 L 182.585,-102.643 L 182.438,-102.761
 L 182.308,-102.896 L 182.195,-103.047 L 182.102,-103.211 L 182.03,-103.385 L 181.981,-103.567 L 181.954,-103.753
 L 181.952,-103.942 L 181.973,-104.129 L 182.017,-104.312 L 182.084,-104.488 L 182.172,-104.655 L 182.281,-104.808
 L 182.408,-104.948 L 182.551,-105.07 L 182.709,-105.173 L 182.878,-105.255 L 183.057,-105.316 L 183.241,-105.354
 L 183.429,-105.368 L 183.617,-105.359 L 183.803,-105.326 L 183.983,-105.271 L 184.154,-105.193 L 184.315,-105.094
 L 184.461,-104.976 L 184.592,-104.841 L 184.705,-104.69 L 184.798,-104.526 L 184.87,-104.352 L 184.919,-104.17
 L 184.945,-103.984 L 184.948,-103.795 L 184.927,-103.608 L 184.883,-103.425 L 184.816,-103.249 L 184.727,-103.083
 L 184.619,-102.929 L 184.492,-102.79 L 184.348,-102.667 L 184.191,-102.564 L 184.021,-102.482 L 183.843,-102.421
 L 183.659,-102.383 L 183.471,-102.369 z
M 307.027,-100.736 L 306.842,-100.774 L 306.664,-100.835 L 306.495,-100.917 L 306.337,-101.02 L 306.194,-101.142
 L 306.067,-101.282 L 305.958,-101.435 L 305.87,-101.602 L 305.803,-101.778 L 305.758,-101.961 L 305.737,-102.148
 L 305.74,-102.337 L 305.766,-102.523 L 305.816,-102.705 L 305.887,-102.879 L 305.98,-103.043 L 306.093,-103.194
 L 306.224,-103.329 L 306.371,-103.447 L 306.531,-103.546 L 306.703,-103.624 L 306.883,-103.679 L 307.068,-103.712
 L 307.257,-103.721 L 307.444,-103.707 L 307.629,-103.669 L 307.807,-103.608 L 307.977,-103.526 L 308.134,-103.423
 L 308.278,-103.3 L 308.405,-103.161 L 308.513,-103.007 L 308.602,-102.841 L 308.669,-102.665 L 308.713,-102.482
 L 308.734,-102.295 L 308.731,-102.106 L 308.705,-101.92 L 308.656,-101.738 L 308.584,-101.564 L 308.491,-101.4
 L 308.378,-101.249 L 308.247,-101.114 L 308.1,-100.996 L 307.94,-100.897 L 307.768,-100.819 L 307.588,-100.764
 L 307.403,-100.731 L 307.215,-100.722 z
M 292.597,-100.731 L 292.412,-100.764 L 292.232,-100.819 L 292.06,-100.897 L 291.9,-100.996 L 291.753,-101.114
 L 291.622,-101.249 L 291.509,-101.4 L 291.416,-101.564 L 291.344,-101.738 L 291.295,-101.92 L 291.269,-102.106
 L 291.266,-102.295 L 291.287,-102.482 L 291.331,-102.665 L 291.398,-102.841 L 291.487,-103.007 L 291.595,-103.161
 L 291.722,-103.3 L 291.866,-103.423 L 292.023,-103.526 L 292.193,-103.608 L 292.371,-103.669 L 292.556,-103.707
 L 292.743,-103.721 L 292.932,-103.712 L 293.117,-103.679 L 293.297,-103.624 L 293.469,-103.546 L 293.629,-103.447
 L 293.776,-103.329 L 293.907,-103.194 L 294.02,-103.043 L 294.113,-102.879 L 294.184,-102.705 L 294.234,-102.523
 L 294.26,-102.337 L 294.263,-102.148 L 294.242,-101.961 L 294.197,-101.778 L 294.13,-101.602 L 294.042,-101.435
 L 293.933,-101.282 L 293.806,-101.142 L 293.663,-101.02 L 293.505,-100.917 L 293.336,-100.835 L 293.158,-100.774
 L 292.973,-100.736 L 292.785,-100.722 z
M 234.102,-82.7094 L 234.273,-83.6749 L 233.472,-83.8161 L 234.08,-87.263 L 234.88,-87.1219 L 235.75,-92.0547
 L 234.95,-92.1958 L 235.558,-95.6427 L 236.358,-95.5016 L 236.528,-96.4671 L 250.286,-94.0413 L 250.116,-93.0757
 L 250.916,-92.9346 L 250.308,-89.4877 L 249.508,-89.6288 L 248.638,-84.696 L 249.439,-84.5549 L 248.831,-81.1079
 L 248.03,-81.2491 L 247.86,-80.2835 z
M 351.97,-81.2491 L 351.169,-81.1079 L 350.561,-84.5549 L 351.362,-84.696 L 350.492,-89.6288 L 349.692,-89.4877
 L 349.084,-92.9346 L 349.884,-93.0757 L 349.714,-94.0413 L 363.472,-96.4671 L 363.642,-95.5016 L 364.442,-95.6427
 L 365.05,-92.1958 L 364.25,-92.0547 L 365.12,-87.1219 L 365.92,-87.263 L 366.528,-83.8161 L 365.727,-83.6749
 L 365.898,-82.7094 L 352.14,-80.2835 z
M 390.781,-79.9693 L 389.981,-79.8281 L 389.373,-83.275 L 390.174,-83.4162 L 389.304,-88.349 L 388.503,-88.2078
 L 387.896,-91.6548 L 388.696,-91.7959 L 388.526,-92.7614 L 402.284,-95.1873 L 402.454,-94.2218 L 403.254,-94.3629
 L 403.862,-90.916 L 403.062,-90.7748 L 403.931,-85.842 L 404.732,-85.9832 L 405.34,-82.5363 L 404.539,-82.3951
 L 404.709,-81.4296 L 390.952,-79.0037 z
M 195.291,-81.4296 L 195.461,-82.3951 L 194.66,-82.5363 L 195.268,-85.9832 L 196.069,-85.842 L 196.938,-90.7748
 L 196.138,-90.916 L 196.746,-94.3629 L 197.546,-94.2218 L 197.716,-95.1873 L 211.474,-92.7614 L 211.304,-91.7959
 L 212.104,-91.6548 L 211.497,-88.2078 L 210.696,-88.349 L 209.826,-83.4162 L 210.627,-83.275 L 210.019,-79.8281
 L 209.219,-79.9693 L 209.048,-79.0037 z
M 371.549,-79.6244 L 370.749,-79.4832 L 370.141,-82.9301 L 370.941,-83.0713 L 370.072,-88.0041 L 369.271,-87.8629
 L 368.663,-91.3099 L 369.464,-91.451 L 369.294,-92.4165 L 383.051,-94.8424 L 383.222,-93.8769 L 384.022,-94.018
 L 384.63,-90.5711 L 383.829,-90.4299 L 384.699,-85.4971 L 385.5,-85.6383 L 386.107,-82.1914 L 385.307,-82.0502
 L 385.477,-81.0847 L 371.719,-78.6588 z
M 214.523,-81.0847 L 214.693,-82.0502 L 213.893,-82.1914 L 214.5,-85.6383 L 215.301,-85.4971 L 216.171,-90.4299
 L 215.37,-90.5711 L 215.978,-94.018 L 216.778,-93.8769 L 216.949,-94.8424 L 230.706,-92.4165 L 230.536,-91.451
 L 231.337,-91.3099 L 230.729,-87.8629 L 229.928,-88.0041 L 229.059,-83.0713 L 229.859,-82.9301 L 229.251,-79.4832
 L 228.451,-79.6244 L 228.281,-78.6588 z
M 334.3,-72.0409 L 333.5,-71.8998 L 332.892,-75.3467 L 333.692,-75.4879 L 332.823,-80.4206 L 332.022,-80.2795
 L 331.414,-83.7264 L 332.215,-83.8676 L 332.045,-84.8331 L 345.802,-87.259 L 345.973,-86.2934 L 346.773,-86.4346
 L 347.381,-82.9876 L 346.58,-82.8465 L 347.45,-77.9137 L 348.251,-78.0549 L 348.858,-74.6079 L 348.058,-74.4668
 L 348.228,-73.5012 L 334.47,-71.0754 z
M 251.772,-73.5012 L 251.942,-74.4668 L 251.142,-74.6079 L 251.749,-78.0549 L 252.55,-77.9137 L 253.42,-82.8465
 L 252.619,-82.9876 L 253.227,-86.4346 L 254.027,-86.2934 L 254.198,-87.259 L 267.955,-84.8331 L 267.785,-83.8676
 L 268.586,-83.7264 L 267.978,-80.2795 L 267.177,-80.4206 L 266.308,-75.4879 L 267.108,-75.3467 L 266.5,-71.8998
 L 265.7,-72.0409 L 265.53,-71.0754 z
M 316.457,-63.8176 L 315.657,-63.6764 L 315.049,-67.1234 L 315.849,-67.2645 L 314.979,-72.1973 L 314.179,-72.0561
 L 313.571,-75.5031 L 314.372,-75.6442 L 314.201,-76.6098 L 327.959,-79.0356 L 328.129,-78.0701 L 328.93,-78.2112
 L 329.538,-74.7643 L 328.737,-74.6231 L 329.607,-69.6904 L 330.407,-69.8315 L 331.015,-66.3846 L 330.215,-66.2434
 L 330.385,-65.2779 L 316.627,-62.852 z
M 269.615,-65.2779 L 269.785,-66.2434 L 268.985,-66.3846 L 269.593,-69.8315 L 270.393,-69.6904 L 271.263,-74.6231
 L 270.462,-74.7643 L 271.07,-78.2112 L 271.871,-78.0701 L 272.041,-79.0356 L 285.799,-76.6098 L 285.628,-75.6442
 L 286.429,-75.5031 L 285.821,-72.0561 L 285.021,-72.1973 L 284.151,-67.2645 L 284.951,-67.1234 L 284.343,-63.6764
 L 283.543,-63.8176 L 283.373,-62.852 z
M 230.803,-63.998 L 230.973,-64.9636 L 230.173,-65.1047 L 230.781,-68.5517 L 231.581,-68.4105 L 232.451,-73.3433
 L 231.65,-73.4845 L 232.258,-76.9314 L 233.059,-76.7903 L 233.229,-77.7558 L 246.987,-75.3299 L 246.816,-74.3644
 L 247.617,-74.2233 L 247.009,-70.7763 L 246.209,-70.9174 L 245.339,-65.9847 L 246.139,-65.8435 L 245.532,-62.3966
 L 244.731,-62.5377 L 244.561,-61.5722 z
M 355.269,-62.5377 L 354.468,-62.3966 L 353.861,-65.8435 L 354.661,-65.9847 L 353.791,-70.9174 L 352.991,-70.7763
 L 352.383,-74.2233 L 353.184,-74.3644 L 353.013,-75.3299 L 366.771,-77.7558 L 366.941,-76.7903 L 367.742,-76.9314
 L 368.35,-73.4845 L 367.549,-73.3433 L 368.419,-68.4105 L 369.219,-68.5517 L 369.827,-65.1047 L 369.027,-64.9636
 L 369.197,-63.998 L 355.439,-61.5722 z
M 394.081,-61.2579 L 393.28,-61.1168 L 392.673,-64.5637 L 393.473,-64.7048 L 392.603,-69.6376 L 391.803,-69.4965
 L 391.195,-72.9434 L 391.995,-73.0845 L 391.825,-74.0501 L 405.583,-76.476 L 405.753,-75.5104 L 406.554,-75.6516
 L 407.161,-72.2046 L 406.361,-72.0635 L 407.231,-67.1307 L 408.031,-67.2718 L 408.639,-63.8249 L 407.839,-63.6838
 L 408.009,-62.7182 L 394.251,-60.2924 z
M 191.991,-62.7182 L 192.161,-63.6838 L 191.361,-63.8249 L 191.969,-67.2718 L 192.769,-67.1307 L 193.639,-72.0635
 L 192.839,-72.2046 L 193.446,-75.6516 L 194.247,-75.5104 L 194.417,-76.476 L 208.175,-74.0501 L 208.005,-73.0845
 L 208.805,-72.9434 L 208.197,-69.4965 L 207.397,-69.6376 L 206.527,-64.7048 L 207.327,-64.5637 L 206.72,-61.1168
 L 205.919,-61.2579 L 205.749,-60.2924 z
M 211.224,-62.3733 L 211.394,-63.3389 L 210.593,-63.48 L 211.201,-66.9269 L 212.002,-66.7858 L 212.871,-71.7186
 L 212.071,-71.8597 L 212.679,-75.3067 L 213.479,-75.1655 L 213.649,-76.1311 L 227.407,-73.7052 L 227.237,-72.7397
 L 228.037,-72.5985 L 227.43,-69.1516 L 226.629,-69.2927 L 225.759,-64.3599 L 226.56,-64.2188 L 225.952,-60.7719
 L 225.152,-60.913 L 224.981,-59.9475 z
M 374.848,-60.913 L 374.048,-60.7719 L 373.44,-64.2188 L 374.241,-64.3599 L 373.371,-69.2927 L 372.57,-69.1516
 L 371.963,-72.5985 L 372.763,-72.7397 L 372.593,-73.7052 L 386.351,-76.1311 L 386.521,-75.1655 L 387.321,-75.3067
 L 387.929,-71.8597 L 387.129,-71.7186 L 387.998,-66.7858 L 388.799,-66.9269 L 389.407,-63.48 L 388.606,-63.3389
 L 388.776,-62.3733 L 375.019,-59.9475 z
M 337.599,-53.3296 L 336.799,-53.1884 L 336.191,-56.6354 L 336.992,-56.7765 L 336.122,-61.7093 L 335.321,-61.5681
 L 334.714,-65.0151 L 335.514,-65.1562 L 335.344,-66.1218 L 349.102,-68.5476 L 349.272,-67.5821 L 350.072,-67.7232
 L 350.68,-64.2763 L 349.88,-64.1351 L 350.749,-59.2024 L 351.55,-59.3435 L 352.158,-55.8966 L 351.357,-55.7554
 L 351.527,-54.7899 L 337.77,-52.364 z
M 248.473,-54.7899 L 248.643,-55.7554 L 247.842,-55.8966 L 248.45,-59.3435 L 249.251,-59.2024 L 250.12,-64.1351
 L 249.32,-64.2763 L 249.928,-67.7232 L 250.728,-67.5821 L 250.898,-68.5476 L 264.656,-66.1218 L 264.486,-65.1562
 L 265.286,-65.0151 L 264.679,-61.5681 L 263.878,-61.7093 L 263.008,-56.7765 L 263.809,-56.6354 L 263.201,-53.1884
 L 262.401,-53.3296 L 262.23,-52.364 z
M 266.316,-46.5665 L 266.486,-47.5321 L 265.685,-47.6732 L 266.293,-51.1202 L 267.094,-50.979 L 267.964,-55.9118
 L 267.163,-56.0529 L 267.771,-59.4999 L 268.571,-59.3587 L 268.742,-60.3243 L 282.499,-57.8984 L 282.329,-56.9329
 L 283.129,-56.7917 L 282.522,-53.3448 L 281.721,-53.4859 L 280.851,-48.5531 L 281.652,-48.412 L 281.044,-44.9651
 L 280.244,-45.1062 L 280.073,-44.1407 z
M 319.756,-45.1062 L 318.956,-44.9651 L 318.348,-48.412 L 319.149,-48.5531 L 318.279,-53.4859 L 317.478,-53.3448
 L 316.871,-56.7917 L 317.671,-56.9329 L 317.501,-57.8984 L 331.258,-60.3243 L 331.429,-59.3587 L 332.229,-59.4999
 L 332.837,-56.0529 L 332.036,-55.9118 L 332.906,-50.979 L 333.707,-51.1202 L 334.315,-47.6732 L 333.514,-47.5321
 L 333.684,-46.5665 L 319.927,-44.1407 z
M 227.504,-45.2867 L 227.674,-46.2522 L 226.874,-46.3934 L 227.481,-49.8403 L 228.282,-49.6992 L 229.152,-54.632
 L 228.351,-54.7731 L 228.959,-58.22 L 229.759,-58.0789 L 229.93,-59.0444 L 243.687,-56.6186 L 243.517,-55.653
 L 244.318,-55.5119 L 243.71,-52.065 L 242.909,-52.2061 L 242.04,-47.2733 L 242.84,-47.1322 L 242.232,-43.6852
 L 241.432,-43.8264 L 241.262,-42.8608 z
M 358.568,-43.8264 L 357.768,-43.6852 L 357.16,-47.1322 L 357.96,-47.2733 L 357.091,-52.2061 L 356.29,-52.065
 L 355.682,-55.5119 L 356.483,-55.653 L 356.313,-56.6186 L 370.07,-59.0444 L 370.241,-58.0789 L 371.041,-58.22
 L 371.649,-54.7731 L 370.848,-54.632 L 371.718,-49.6992 L 372.519,-49.8403 L 373.126,-46.3934 L 372.326,-46.2522
 L 372.496,-45.2867 L 358.738,-42.8608 z
M 188.692,-44.0069 L 188.862,-44.9724 L 188.062,-45.1136 L 188.669,-48.5605 L 189.47,-48.4194 L 190.34,-53.3521
 L 189.539,-53.4933 L 190.147,-56.9402 L 190.948,-56.7991 L 191.118,-57.7646 L 204.876,-55.3387 L 204.705,-54.3732
 L 205.506,-54.2321 L 204.898,-50.7851 L 204.097,-50.9263 L 203.228,-45.9935 L 204.028,-45.8524 L 203.42,-42.4054
 L 202.62,-42.5466 L 202.45,-41.581 z
M 397.38,-42.5466 L 396.58,-42.4054 L 395.972,-45.8524 L 396.772,-45.9935 L 395.903,-50.9263 L 395.102,-50.7851
 L 394.494,-54.2321 L 395.295,-54.3732 L 395.124,-55.3387 L 408.882,-57.7646 L 409.052,-56.7991 L 409.853,-56.9402
 L 410.461,-53.4933 L 409.66,-53.3521 L 410.53,-48.4194 L 411.331,-48.5605 L 411.938,-45.1136 L 411.138,-44.9724
 L 411.308,-44.0069 L 397.55,-41.581 z
M 207.924,-43.662 L 208.094,-44.6275 L 207.294,-44.7687 L 207.902,-48.2156 L 208.702,-48.0745 L 209.572,-53.0072
 L 208.772,-53.1484 L 209.379,-56.5953 L 210.18,-56.4542 L 210.35,-57.4197 L 224.108,-54.9939 L 223.938,-54.0283
 L 224.738,-53.8872 L 224.13,-50.4402 L 223.33,-50.5814 L 222.46,-45.6486 L 223.26,-45.5075 L 222.653,-42.0605
 L 221.852,-42.2017 L 221.682,-41.2361 z
M 378.148,-42.2017 L 377.347,-42.0605 L 376.74,-45.5075 L 377.54,-45.6486 L 376.67,-50.5814 L 375.87,-50.4402
 L 375.262,-53.8872 L 376.062,-54.0283 L 375.892,-54.9939 L 389.65,-57.4197 L 389.82,-56.4542 L 390.621,-56.5953
 L 391.228,-53.1484 L 390.428,-53.0072 L 391.298,-48.0745 L 392.098,-48.2156 L 392.706,-44.7687 L 391.906,-44.6275
 L 392.076,-43.662 L 378.318,-41.2361 z
M 245.173,-36.0786 L 245.344,-37.0441 L 244.543,-37.1852 L 245.151,-40.6322 L 245.951,-40.491 L 246.821,-45.4238
 L 246.021,-45.5649 L 246.628,-49.0119 L 247.429,-48.8707 L 247.599,-49.8363 L 261.357,-47.4104 L 261.187,-46.4449
 L 261.987,-46.3037 L 261.379,-42.8568 L 260.579,-42.9979 L 259.709,-38.0652 L 260.509,-37.924 L 259.902,-34.4771
 L 259.101,-34.6182 L 258.931,-33.6527 z
M 340.899,-34.6182 L 340.098,-34.4771 L 339.491,-37.924 L 340.291,-38.0652 L 339.421,-42.9979 L 338.621,-42.8568
 L 338.013,-46.3037 L 338.813,-46.4449 L 338.643,-47.4104 L 352.401,-49.8363 L 352.571,-48.8707 L 353.372,-49.0119
 L 353.979,-45.5649 L 353.179,-45.4238 L 354.049,-40.491 L 354.849,-40.6322 L 355.457,-37.1852 L 354.656,-37.0441
 L 354.827,-36.0786 L 341.069,-33.6527 z
M 323.056,-26.3949 L 322.255,-26.2537 L 321.647,-29.7007 L 322.448,-29.8418 L 321.578,-34.7746 L 320.778,-34.6335
 L 320.17,-38.0804 L 320.97,-38.2215 L 320.8,-39.1871 L 334.558,-41.6129 L 334.728,-40.6474 L 335.528,-40.7885
 L 336.136,-37.3416 L 335.336,-37.2005 L 336.206,-32.2677 L 337.006,-32.4088 L 337.614,-28.9619 L 336.813,-28.8207
 L 336.984,-27.8552 L 323.226,-25.4293 z
M 263.016,-27.8552 L 263.187,-28.8207 L 262.386,-28.9619 L 262.994,-32.4088 L 263.794,-32.2677 L 264.664,-37.2005
 L 263.864,-37.3416 L 264.472,-40.7885 L 265.272,-40.6474 L 265.442,-41.6129 L 279.2,-39.1871 L 279.03,-38.2215
 L 279.83,-38.0804 L 279.222,-34.6335 L 278.422,-34.7746 L 277.552,-29.8418 L 278.353,-29.7007 L 277.745,-26.2537
 L 276.944,-26.3949 L 276.774,-25.4293 z
M 361.868,-25.115 L 361.067,-24.9739 L 360.459,-28.4208 L 361.26,-28.562 L 360.39,-33.4948 L 359.59,-33.3536
 L 358.982,-36.8006 L 359.782,-36.9417 L 359.612,-37.9072 L 373.37,-40.3331 L 373.54,-39.3676 L 374.34,-39.5087
 L 374.948,-36.0618 L 374.148,-35.9206 L 375.017,-30.9878 L 375.818,-31.129 L 376.426,-27.682 L 375.625,-27.5409
 L 375.796,-26.5754 L 362.038,-24.1495 z
M 224.204,-26.5754 L 224.375,-27.5409 L 223.574,-27.682 L 224.182,-31.129 L 224.983,-30.9878 L 225.852,-35.9206
 L 225.052,-36.0618 L 225.66,-39.5087 L 226.46,-39.3676 L 226.63,-40.3331 L 240.388,-37.9072 L 240.218,-36.9417
 L 241.018,-36.8006 L 240.41,-33.3536 L 239.61,-33.4948 L 238.74,-28.562 L 239.541,-28.4208 L 238.933,-24.9739
 L 238.132,-25.115 L 237.962,-24.1495 z
M 400.679,-23.8352 L 399.879,-23.6941 L 399.271,-27.141 L 400.072,-27.2822 L 399.202,-32.2149 L 398.401,-32.0738
 L 397.794,-35.5207 L 398.594,-35.6619 L 398.424,-36.6274 L 412.182,-39.0533 L 412.352,-38.0877 L 413.152,-38.2289
 L 413.76,-34.7819 L 412.96,-34.6408 L 413.829,-29.708 L 414.63,-29.8492 L 415.238,-26.4022 L 414.437,-26.2611
 L 414.607,-25.2955 L 400.85,-22.8697 z
M 185.393,-25.2955 L 185.563,-26.2611 L 184.762,-26.4022 L 185.37,-29.8492 L 186.171,-29.708 L 187.04,-34.6408
 L 186.24,-34.7819 L 186.848,-38.2289 L 187.648,-38.0877 L 187.818,-39.0533 L 201.576,-36.6274 L 201.406,-35.6619
 L 202.206,-35.5207 L 201.599,-32.0738 L 200.798,-32.2149 L 199.928,-27.2822 L 200.729,-27.141 L 200.121,-23.6941
 L 199.321,-23.8352 L 199.15,-22.8697 z
M 381.447,-23.4903 L 380.647,-23.3492 L 380.039,-26.7961 L 380.839,-26.9373 L 379.97,-31.87 L 379.169,-31.7289
 L 378.561,-35.1758 L 379.362,-35.317 L 379.192,-36.2825 L 392.949,-38.7084 L 393.12,-37.7428 L 393.92,-37.884
 L 394.528,-34.437 L 393.727,-34.2959 L 394.597,-29.3631 L 395.398,-29.5043 L 396.005,-26.0573 L 395.205,-25.9162
 L 395.375,-24.9506 L 381.617,-22.5248 z
M 204.625,-24.9506 L 204.795,-25.9162 L 203.995,-26.0573 L 204.602,-29.5043 L 205.403,-29.3631 L 206.273,-34.2959
 L 205.472,-34.437 L 206.08,-37.884 L 206.88,-37.7428 L 207.051,-38.7084 L 220.808,-36.2825 L 220.638,-35.317
 L 221.439,-35.1758 L 220.831,-31.7289 L 220.03,-31.87 L 219.161,-26.9373 L 219.961,-26.7961 L 219.353,-23.3492
 L 218.553,-23.4903 L 218.383,-22.5248 z
M 241.874,-17.3672 L 242.044,-18.3327 L 241.244,-18.4739 L 241.852,-21.9208 L 242.652,-21.7797 L 243.522,-26.7125
 L 242.721,-26.8536 L 243.329,-30.3005 L 244.13,-30.1594 L 244.3,-31.1249 L 258.058,-28.6991 L 257.887,-27.7335
 L 258.688,-27.5924 L 258.08,-24.1455 L 257.279,-24.2866 L 256.41,-19.3538 L 257.21,-19.2127 L 256.602,-15.7657
 L 255.802,-15.9069 L 255.632,-14.9413 z
M 344.198,-15.9069 L 343.398,-15.7657 L 342.79,-19.2127 L 343.59,-19.3538 L 342.721,-24.2866 L 341.92,-24.1455
 L 341.312,-27.5924 L 342.113,-27.7335 L 341.942,-28.6991 L 355.7,-31.1249 L 355.87,-30.1594 L 356.671,-30.3005
 L 357.279,-26.8536 L 356.478,-26.7125 L 357.348,-21.7797 L 358.148,-21.9208 L 358.756,-18.4739 L 357.956,-18.3327
 L 358.126,-17.3672 L 344.368,-14.9413 z
M 280.078,-15.2002 L 280.248,-16.1657 L 279.448,-16.3069 L 280.056,-19.7538 L 280.856,-19.6127 L 281.726,-24.5455
 L 280.925,-24.6866 L 281.533,-28.1335 L 282.334,-27.9924 L 282.504,-28.9579 L 296.262,-26.5321 L 296.091,-25.5665
 L 296.892,-25.4254 L 296.284,-21.9785 L 295.484,-22.1196 L 294.614,-17.1868 L 295.414,-17.0457 L 294.806,-13.5987
 L 294.006,-13.7399 L 293.836,-12.7743 z
M 305.994,-13.7399 L 305.194,-13.5987 L 304.586,-17.0457 L 305.386,-17.1868 L 304.516,-22.1196 L 303.716,-21.9785
 L 303.108,-25.4254 L 303.909,-25.5665 L 303.738,-26.5321 L 317.496,-28.9579 L 317.666,-27.9924 L 318.467,-28.1335
 L 319.075,-24.6866 L 318.274,-24.5455 L 319.144,-19.6127 L 319.944,-19.7538 L 320.552,-16.3069 L 319.752,-16.1657
 L 319.922,-15.2002 L 306.164,-12.7743 z
M 259.717,-9.14384 L 259.887,-10.1094 L 259.087,-10.2505 L 259.695,-13.6975 L 260.495,-13.5563 L 261.365,-18.4891
 L 260.564,-18.6302 L 261.172,-22.0772 L 261.973,-21.936 L 262.143,-22.9016 L 275.901,-20.4757 L 275.73,-19.5102
 L 276.531,-19.369 L 275.923,-15.9221 L 275.123,-16.0632 L 274.253,-11.1305 L 275.053,-10.9893 L 274.445,-7.54239
 L 273.645,-7.68353 L 273.475,-6.71799 z
M 326.355,-7.68353 L 325.555,-7.54239 L 324.947,-10.9893 L 325.747,-11.1305 L 324.877,-16.0632 L 324.077,-15.9221
 L 323.469,-19.369 L 324.27,-19.5102 L 324.099,-20.4757 L 337.857,-22.9016 L 338.027,-21.936 L 338.828,-22.0772
 L 339.436,-18.6302 L 338.635,-18.4891 L 339.505,-13.5563 L 340.305,-13.6975 L 340.913,-10.2505 L 340.113,-10.1094
 L 340.283,-9.14384 L 326.525,-6.71799 z
M 178.191,-18.8795 L 178.006,-18.9122 L 177.826,-18.9679 L 177.654,-19.0458 L 177.494,-19.1445 L 177.347,-19.2625
 L 177.216,-19.398 L 177.103,-19.5488 L 177.01,-19.7126 L 176.939,-19.8868 L 176.889,-20.0686 L 176.863,-20.2551
 L 176.86,-20.4435 L 176.881,-20.6306 L 176.926,-20.8137 L 176.992,-20.9898 L 177.081,-21.1562 L 177.189,-21.3101
 L 177.316,-21.4492 L 177.46,-21.5713 L 177.618,-21.6744 L 177.787,-21.757 L 177.965,-21.8177 L 178.15,-21.8556
 L 178.338,-21.87 L 178.526,-21.8608 L 178.711,-21.8281 L 178.891,-21.7724 L 179.063,-21.6946 L 179.223,-21.5959
 L 179.37,-21.4778 L 179.501,-21.3423 L 179.614,-21.1915 L 179.707,-21.0277 L 179.778,-20.8536 L 179.828,-20.6718
 L 179.854,-20.4852 L 179.857,-20.2969 L 179.836,-20.1097 L 179.791,-19.9266 L 179.725,-19.7505 L 179.636,-19.5842
 L 179.527,-19.4303 L 179.4,-19.2912 L 179.257,-19.1691 L 179.099,-19.0659 L 178.93,-18.9834 L 178.752,-18.9227
 L 178.567,-18.8848 L 178.379,-18.8703 z
M 421.433,-18.8848 L 421.248,-18.9227 L 421.07,-18.9834 L 420.901,-19.0659 L 420.743,-19.1691 L 420.6,-19.2912
 L 420.473,-19.4303 L 420.364,-19.5842 L 420.275,-19.7505 L 420.209,-19.9266 L 420.164,-20.1097 L 420.143,-20.2969
 L 420.146,-20.4852 L 420.172,-20.6718 L 420.222,-20.8536 L 420.293,-21.0277 L 420.386,-21.1915 L 420.499,-21.3423
 L 420.63,-21.4778 L 420.777,-21.5959 L 420.937,-21.6946 L 421.109,-21.7724 L 421.289,-21.8281 L 421.474,-21.8608
 L 421.662,-21.87 L 421.85,-21.8556 L 422.035,-21.8177 L 422.213,-21.757 L 422.382,-21.6744 L 422.54,-21.5713
 L 422.684,-21.4492 L 422.811,-21.3101 L 422.919,-21.1562 L 423.008,-20.9898 L 423.074,-20.8137 L 423.119,-20.6306
 L 423.14,-20.4435 L 423.137,-20.2551 L 423.111,-20.0686 L 423.061,-19.8868 L 422.99,-19.7126 L 422.897,-19.5488
 L 422.784,-19.398 L 422.653,-19.2625 L 422.506,-19.1445 L 422.346,-19.0458 L 422.174,-18.9679 L 421.994,-18.9122
 L 421.809,-18.8795 L 421.621,-18.8703 z
M 299.812,-7.00591 L 299.438,-7.05313 L 299.073,-7.14682 L 298.723,-7.28551 L 298.393,-7.46701 L 298.088,-7.68845
 L 297.813,-7.94635 L 297.573,-8.23663 L 297.371,-8.55473 L 297.211,-8.89561 L 297.094,-9.25392 L 297.024,-9.62399
 L 297,-10 L 297.024,-10.376 L 297.094,-10.7461 L 297.211,-11.1044 L 297.371,-11.4453 L 297.573,-11.7634
 L 297.813,-12.0536 L 298.088,-12.3115 L 298.393,-12.533 L 298.723,-12.7145 L 299.073,-12.8532 L 299.438,-12.9469
 L 299.812,-12.9941 L 300.188,-12.9941 L 300.562,-12.9469 L 300.927,-12.8532 L 301.277,-12.7145 L 301.607,-12.533
 L 301.912,-12.3115 L 302.187,-12.0536 L 302.427,-11.7634 L 302.629,-11.4453 L 302.789,-11.1044 L 302.906,-10.7461
 L 302.976,-10.376 L 303,-10 L 302.976,-9.62399 L 302.906,-9.25392 L 302.789,-8.89561 L 302.629,-8.55473
 L 302.427,-8.23663 L 302.187,-7.94635 L 301.912,-7.68845 L 301.607,-7.46701 L 301.277,-7.28551 L 300.927,-7.14682
 L 300.562,-7.05313 L 300.188,-7.00591 z
M 267.245,9.50085 L 267.059,9.46815 L 266.879,9.41245 L 266.708,9.33464 L 266.547,9.23593 L 266.4,9.11789
 L 266.27,8.98239 L 266.157,8.83156 L 266.064,8.66777 L 265.992,8.49361 L 265.943,8.31183 L 265.916,8.12529
 L 265.914,7.93694 L 265.935,7.74974 L 265.979,7.56665 L 266.046,7.39055 L 266.134,7.22423 L 266.243,7.07031
 L 266.37,6.93121 L 266.513,6.80911 L 266.671,6.70598 L 266.84,6.62338 L 267.019,6.56268 L 267.203,6.52481
 L 267.391,6.51035 L 267.579,6.51956 L 267.765,6.55226 L 267.945,6.60797 L 268.116,6.68579 L 268.277,6.78448
 L 268.423,6.90253 L 268.554,7.03804 L 268.667,7.18886 L 268.76,7.35266 L 268.832,7.52681 L 268.881,7.70859
 L 268.907,7.89513 L 268.91,8.08348 L 268.889,8.27068 L 268.845,8.45377 L 268.778,8.62987 L 268.689,8.79619
 L 268.581,8.9501 L 268.454,9.08922 L 268.31,9.2113 L 268.153,9.31445 L 267.983,9.39703 L 267.805,9.45773
 L 267.621,9.49562 L 267.433,9.51007 z
M 332.379,9.49562 L 332.195,9.45773 L 332.017,9.39703 L 331.847,9.31445 L 331.69,9.2113 L 331.546,9.08922
 L 331.419,8.9501 L 331.311,8.79619 L 331.222,8.62987 L 331.155,8.45377 L 331.111,8.27068 L 331.09,8.08348
 L 331.093,7.89513 L 331.119,7.70859 L 331.168,7.52681 L 331.24,7.35266 L 331.333,7.18886 L 331.446,7.03804
 L 331.577,6.90253 L 331.723,6.78448 L 331.884,6.68579 L 332.055,6.60797 L 332.235,6.55226 L 332.421,6.51956
 L 332.609,6.51035 L 332.797,6.52481 L 332.981,6.56268 L 333.16,6.62338 L 333.329,6.70598 L 333.487,6.80911
 L 333.63,6.93121 L 333.757,7.07031 L 333.866,7.22423 L 333.954,7.39055 L 334.021,7.56665 L 334.065,7.74974
 L 334.086,7.93694 L 334.084,8.12529 L 334.057,8.31183 L 334.008,8.49361 L 333.936,8.66777 L 333.843,8.83156
 L 333.73,8.98239 L 333.6,9.11789 L 333.453,9.23593 L 333.292,9.33464 L 333.121,9.41245 L 332.941,9.46815
 L 332.755,9.50085 L 332.567,9.51007 z
M 33.2569,13.9728 L 33.999,13.842 L 34.7188,13.6192 L 123.772,-14.7612 L 124.458,-15.0725 L 125.1,-15.4673
 L 125.687,-15.9394 L 126.211,-16.4815 L 126.662,-17.0848 L 127.034,-17.74 L 127.321,-18.4366 L 127.519,-19.1637
 L 127.624,-19.9099 L 127.634,-20.6633 L 122.543,-104.162 L 122.459,-104.91 L 122.282,-105.643 L 122.014,-106.347
 L 121.66,-107.012 L 121.226,-107.628 L 120.718,-108.185 L 120.144,-108.673 L 119.514,-109.086 L 118.837,-109.416
 L 118.123,-109.659 L 117.385,-109.81 L 116.634,-109.868 L -116.634,-109.868 L -117.385,-109.81 L -118.123,-109.659
 L -118.837,-109.416 L -119.514,-109.086 L -120.144,-108.673 L -120.718,-108.185 L -121.226,-107.628 L -121.66,-107.012
 L -122.014,-106.347 L -122.282,-105.643 L -122.459,-104.91 L -122.543,-104.162 L -127.634,-20.6633 L -127.624,-19.9099
 L -127.519,-19.1637 L -127.321,-18.4366 L -127.034,-17.74 L -126.662,-17.0848 L -126.211,-16.4815 L -125.687,-15.9394
 L -125.1,-15.4673 L -124.458,-15.0725 L -123.772,-14.7612 L -34.7188,13.6192 L -33.999,13.842 L -33.2569,13.9728
 L -32.5043,14.0096 L 32.5043,14.0096 z
M 116.341,-102.383 L 116.157,-102.421 L 115.979,-102.482 L 115.809,-102.564 L 115.652,-102.667 L 115.508,-102.79
 L 115.381,-102.929 L 115.273,-103.083 L 115.184,-103.249 L 115.117,-103.425 L 115.073,-103.608 L 115.052,-103.795
 L 115.055,-103.984 L 115.081,-104.17 L 115.13,-104.352 L 115.202,-104.526 L 115.295,-104.69 L 115.408,-104.841
 L 115.539,-104.976 L 115.685,-105.094 L 115.846,-105.193 L 116.017,-105.271 L 116.197,-105.326 L 116.383,-105.359
 L 116.571,-105.368 L 116.759,-105.354 L 116.943,-105.316 L 117.122,-105.255 L 117.291,-105.173 L 117.449,-105.07
 L 117.592,-104.948 L 117.719,-104.808 L 117.828,-104.655 L 117.916,-104.488 L 117.983,-104.312 L 118.027,-104.129
 L 118.048,-103.942 L 118.046,-103.753 L 118.019,-103.567 L 117.97,-103.385 L 117.898,-103.211 L 117.805,-103.047
 L 117.692,-102.896 L 117.562,-102.761 L 117.415,-102.643 L 117.254,-102.544 L 117.083,-102.466 L 116.903,-102.411
 L 116.717,-102.378 L 116.529,-102.369 z
M -116.717,-102.378 L -116.903,-102.411 L -117.083,-102.466 L -117.254,-102.544 L -117.415,-102.643 L -117.562,-102.761
 L -117.692,-102.896 L -117.805,-103.047 L -117.898,-103.211 L -117.97,-103.385 L -118.019,-103.567 L -118.046,-103.753
 L -118.048,-103.942 L -118.027,-104.129 L -117.983,-104.312 L -117.916,-104.488 L -117.828,-104.655 L -117.719,-104.808
 L -117.592,-104.948 L -117.449,-105.07 L -117.291,-105.173 L -117.122,-105.255 L -116.943,-105.316 L -116.759,-105.354
 L -116.571,-105.368 L -116.383,-105.359 L -116.197,-105.326 L -116.017,-105.271 L -115.846,-105.193 L -115.685,-105.094
 L -115.539,-104.976 L -115.408,-104.841 L -115.295,-104.69 L -115.202,-104.526 L -115.13,-104.352 L -115.081,-104.17
 L -115.055,-103.984 L -115.052,-103.795 L -115.073,-103.608 L -115.117,-103.425 L -115.184,-103.249 L -115.273,-103.083
 L -115.381,-102.929 L -115.508,-102.79 L -115.652,-102.667 L -115.809,-102.564 L -115.979,-102.482 L -116.157,-102.421
 L -116.341,-102.383 L -116.529,-102.369 z
M -7.40282,-100.731 L -7.58833,-100.764 L -7.76828,-100.819 L -7.93982,-100.897 L -8.10027,-100.996 L -8.24707,-101.114
 L -8.37791,-101.249 L -8.49075,-101.4 L -8.5838,-101.564 L -8.65559,-101.738 L -8.70497,-101.92 L -8.73119,-102.106
 L -8.73383,-102.295 L -8.71283,-102.482 L -8.66853,-102.665 L -8.60164,-102.841 L -8.5132,-103.007 L -8.40462,-103.161
 L -8.2776,-103.3 L -8.13416,-103.423 L -7.97653,-103.526 L -7.80722,-103.608 L -7.62889,-103.669 L -7.44437,-103.707
 L -7.25656,-103.721 L -7.06841,-103.712 L -6.8829,-103.679 L -6.70296,-103.624 L -6.5314,-103.546 L -6.37097,-103.447
 L -6.22417,-103.329 L -6.09331,-103.194 L -5.98047,-103.043 L -5.88742,-102.879 L -5.81564,-102.705 L -5.76625,-102.523
 L -5.74004,-102.337 L -5.73741,-102.148 L -5.75841,-101.961 L -5.80269,-101.778 L -5.86958,-101.602 L -5.95802,-101.435
 L -6.0666,-101.282 L -6.19362,-101.142 L -6.33708,-101.02 L -6.49471,-100.917 L -6.664,-100.835 L -6.84233,-100.774
 L -7.02686,-100.736 L -7.21468,-100.722 z
M 7.02686,-100.736 L 6.84233,-100.774 L 6.664,-100.835 L 6.49471,-100.917 L 6.33708,-101.02 L 6.19362,-101.142
 L 6.0666,-101.282 L 5.95802,-101.435 L 5.86958,-101.602 L 5.80269,-101.778 L 5.75841,-101.961 L 5.73741,-102.148
 L 5.74004,-102.337 L 5.76625,-102.523 L 5.81564,-102.705 L 5.88742,-102.879 L 5.98047,-103.043 L 6.09331,-103.194
 L 6.22417,-103.329 L 6.37097,-103.447 L 6.5314,-103.546 L 6.70296,-103.624 L 6.8829,-103.679 L 7.06841,-103.712
 L 7.25656,-103.721 L 7.44437,-103.707 L 7.62889,-103.669 L 7.80722,-103.608 L 7.97653,-103.526 L 8.13416,-103.423
 L 8.2776,-103.3 L 8.40462,-103.161 L 8.5132,-103.007 L 8.60164,-102.841 L 8.66853,-102.665 L 8.71283,-102.482
 L 8.73383,-102.295 L 8.73119,-102.106 L 8.70497,-101.92 L 8.65559,-101.738 L 8.5838,-101.564 L 8.49075,-101.4
 L 8.37791,-101.249 L 8.24707,-101.114 L 8.10027,-100.996 L 7.93982,-100.897 L 7.76828,-100.819 L 7.58833,-100.764
 L 7.40282,-100.731 L 7.21468,-100.722 z
M 22.864,-10.1189 L 4.15268,-6.81956 L 0,-30.3707 L -4.15268,-6.81956 L -22.864,-10.1189 L -24.0796,-3.22522
 L -43.7757,-6.69818 L -42.9075,-11.6222 L -61.6188,-14.9215 L -60.5769,-20.8304 L -78.3035,-23.9561 L -79.1717,-19.032
 L -97.8831,-22.3313 L -98.404,-19.3769 L -118.1,-22.8499 L -104.729,-98.6801 L -86.0179,-95.3808 L -85.497,-98.3352
 L -66.7856,-95.0359 L -65.9174,-99.9599 L -46.2212,-96.4869 L -47.2631,-90.5781 L -28.5518,-87.2788 L -29.42,-82.3547
 L -10.7086,-79.0554 L -18.5228,-34.7391 L 0,-31.473 L 18.5228,-34.7391 L 10.7086,-79.0554 L 29.42,-82.3547
 L 28.5518,-87.2788 L 47.2631,-90.5781 L 46.2212,-96.4869 L 65.9174,-99.9599 L 66.7856,-95.0359 L 85.497,-98.3352
 L 86.0179,-95.3808 L 104.729,-98.6801 L 118.1,-22.8499 L 98.404,-19.3769 L 97.8831,-22.3313 L 79.1717,-19.032
 L 78.3035,-23.9561 L 60.5769,-20.8304 L 61.6188,-14.9215 L 42.9075,-11.6222 L 43.7757,-6.69818 L 24.0796,-3.22522
 z
M -121.809,-18.8795 L -121.994,-18.9122 L -122.174,-18.9679 L -122.346,-19.0458 L -122.506,-19.1445 L -122.653,-19.2625
 L -122.784,-19.398 L -122.897,-19.5488 L -122.99,-19.7126 L -123.061,-19.8868 L -123.111,-20.0686 L -123.137,-20.2551
 L -123.14,-20.4435 L -123.119,-20.6306 L -123.074,-20.8137 L -123.008,-20.9898 L -122.919,-21.1562 L -122.811,-21.3101
 L -122.684,-21.4492 L -122.54,-21.5713 L -122.382,-21.6744 L -122.213,-21.757 L -122.035,-21.8177 L -121.85,-21.8556
 L -121.662,-21.87 L -121.474,-21.8608 L -121.289,-21.8281 L -121.109,-21.7724 L -120.937,-21.6946 L -120.777,-21.5959
 L -120.63,-21.4778 L -120.499,-21.3423 L -120.386,-21.1915 L -120.293,-21.0277 L -120.222,-20.8536 L -120.172,-20.6718
 L -120.146,-20.4852 L -120.143,-20.2969 L -120.164,-20.1097 L -120.209,-19.9266 L -120.275,-19.7505 L -120.364,-19.5842
 L -120.473,-19.4303 L -120.6,-19.2912 L -120.743,-19.1691 L -120.901,-19.0659 L -121.07,-18.9834 L -121.248,-18.9227
 L -121.433,-18.8848 L -121.621,-18.8703 z
M 121.433,-18.8848 L 121.248,-18.9227 L 121.07,-18.9834 L 120.901,-19.0659 L 120.743,-19.1691 L 120.6,-19.2912
 L 120.473,-19.4303 L 120.364,-19.5842 L 120.275,-19.7505 L 120.209,-19.9266 L 120.164,-20.1097 L 120.143,-20.2969
 L 120.146,-20.4852 L 120.172,-20.6718 L 120.222,-20.8536 L 120.293,-21.0277 L 120.386,-21.1915 L 120.499,-21.3423
 L 120.63,-21.4778 L 120.777,-21.5959 L 120.937,-21.6946 L 121.109,-21.7724 L 121.289,-21.8281 L 121.474,-21.8608
 L 121.662,-21.87 L 121.85,-21.8556 L 122.035,-21.8177 L 122.213,-21.757 L 122.382,-21.6744 L 122.54,-21.5713
 L 122.684,-21.4492 L 122.811,-21.3101 L 122.919,-21.1562 L 123.008,-20.9898 L 123.074,-20.8137 L 123.119,-20.6306
 L 123.14,-20.4435 L 123.137,-20.2551 L 123.111,-20.0686 L 123.061,-19.8868 L 122.99,-19.7126 L 122.897,-19.5488
 L 122.784,-19.398 L 122.653,-19.2625 L 122.506,-19.1445 L 122.346,-19.0458 L 122.174,-18.9679 L 121.994,-18.9122
 L 121.809,-18.8795 L 121.621,-18.8703 z
M -0.18837,-7.00591 L -0.562134,-7.05313 L -0.927048,-7.14682 L -1.27733,-7.28551 L -1.60747,-7.46701 L -1.91226,-7.68845
 L -2.1869,-7.94635 L -2.42705,-8.23663 L -2.62891,-8.55473 L -2.78932,-8.89561 L -2.90575,-9.25392 L -2.97633,-9.62399
 L -3,-10 L -2.97633,-10.376 L -2.90575,-10.7461 L -2.78932,-11.1044 L -2.62891,-11.4453 L -2.42705,-11.7634
 L -2.1869,-12.0536 L -1.91226,-12.3115 L -1.60747,-12.533 L -1.27733,-12.7145 L -0.927048,-12.8532 L -0.562134,-12.9469
 L -0.18837,-12.9941 L 0.18837,-12.9941 L 0.562134,-12.9469 L 0.927048,-12.8532 L 1.27733,-12.7145 L 1.60747,-12.533
 L 1.91226,-12.3115 L 2.1869,-12.0536 L 2.42705,-11.7634 L 2.62891,-11.4453 L 2.78932,-11.1044 L 2.90575,-10.7461
 L 2.97633,-10.376 L 3,-10 L 2.97633,-9.62399 L 2.90575,-9.25392 L 2.78932,-8.89561 L 2.62891,-8.55473
 L 2.42705,-8.23663 L 2.1869,-7.94635 L 1.91226,-7.68845 L 1.60747,-7.46701 L 1.27733,-7.28551 L 0.927048,-7.14682
 L 0.562134,-7.05313 L 0.18837,-7.00591 z
M -32.7553,9.50085 L -32.9408,9.46815 L -33.1208,9.41245 L -33.2923,9.33464 L -33.4528,9.23593 L -33.5996,9.11789
 L -33.7304,8.98239 L -33.8433,8.83156 L -33.9363,8.66777 L -34.0081,8.49361 L -34.0575,8.31183 L -34.0837,8.12529
 L -34.0863,7.93694 L -34.0654,7.74974 L -34.021,7.56665 L -33.9542,7.39055 L -33.8657,7.22423 L -33.7571,7.07031
 L -33.6301,6.93121 L -33.4867,6.80911 L -33.3291,6.70598 L -33.1597,6.62338 L -32.9814,6.56268 L -32.7969,6.52481
 L -32.6091,6.51035 L -32.4209,6.51956 L -32.2354,6.55226 L -32.0555,6.60797 L -31.8839,6.68579 L -31.7235,6.78448
 L -31.5767,6.90253 L -31.4458,7.03804 L -31.333,7.18886 L -31.2399,7.35266 L -31.1682,7.52681 L -31.1188,7.70859
 L -31.0926,7.89513 L -31.0899,8.08348 L -31.1109,8.27068 L -31.1552,8.45377 L -31.2221,8.62987 L -31.3105,8.79619
 L -31.4191,8.9501 L -31.5461,9.08922 L -31.6896,9.2113 L -31.8472,9.31445 L -32.0165,9.39703 L -32.1949,9.45773
 L -32.3794,9.49562 L -32.5672,9.51007 z
M 32.3794,9.49562 L 32.1949,9.45773 L 32.0165,9.39703 L 31.8472,9.31445 L 31.6896,9.2113 L 31.5461,9.08922
 L 31.4191,8.9501 L 31.3105,8.79619 L 31.2221,8.62987 L 31.1552,8.45377 L 31.1109,8.27068 L 31.0899,8.08348
 L 31.0926,7.89513 L 31.1188,7.70859 L 31.1682,7.52681 L 31.2399,7.35266 L 31.333,7.18886 L 31.4458,7.03804
 L 31.5767,6.90253 L 31.7235,6.78448 L 31.8839,6.68579 L 32.0555,6.60797 L 32.2354,6.55226 L 32.4209,6.51956
 L 32.6091,6.51035 L 32.7969,6.52481 L 32.9814,6.56268 L 33.1597,6.62338 L 33.3291,6.70598 L 33.4867,6.80911
 L 33.6301,6.93121 L 33.7571,7.07031 L 33.8657,7.22423 L 33.9542,7.39055 L 34.021,7.56665 L 34.0654,7.74974
 L 34.0863,7.93694 L 34.0837,8.12529 L 34.0575,8.31183 L 34.0081,8.49361 L 33.9363,8.66777 L 33.8433,8.83156
 L 33.7304,8.98239 L 33.5996,9.11789 L 33.4528,9.23593 L 33.2923,9.33464 L 33.1208,9.41245 L 32.9408,9.46815
 L 32.7553,9.50085 L 32.5672,9.51007 z
" stroke="black" fill="lightgray" stroke-width="0.5"/></svg>
